<?xml version="1.0" encoding="utf-8"?>
<!-- Generator: Adobe Illustrator 19.2.0, SVG Export Plug-In . SVG Version: 6.00 Build 0)  -->
<svg version="1.1" id="Слой_1" xmlns="http://www.w3.org/2000/svg" xmlns:xlink="http://www.w3.org/1999/xlink" x="0px" y="0px"
	 viewBox="0 0 68 68" style="enable-background:new 0 0 68 68;" xml:space="preserve">
<style type="text/css">
	.st0{fill:#FFFFFF;}
</style>
<g id="Expanded">
	<g>
		<g>
			<path class="st0" d="M62.3,56.7H5.7C2.5,56.7,0,54.1,0,51V17c0-3.1,2.5-5.7,5.7-5.7h56.7c3.1,0,5.7,2.5,5.7,5.7v34
				C68,54.1,65.5,56.7,62.3,56.7z M5.7,14.2c-1.6,0-2.8,1.3-2.8,2.8v34c0,1.6,1.3,2.8,2.8,2.8h56.7c1.6,0,2.8-1.3,2.8-2.8V17
				c0-1.6-1.3-2.8-2.8-2.8H5.7z"/>
		</g>
		<g>
			<path class="st0" d="M34,41.4L9.1,25.3c-0.7-0.4-0.8-1.3-0.4-2s1.3-0.8,2-0.4L34,38l23.3-15.1c0.7-0.4,1.5-0.2,2,0.4
				c0.4,0.7,0.2,1.5-0.4,2L34,41.4z"/>
		</g>
		<g>
			<path class="st0" d="M8.5,48.2c-0.5,0-0.9-0.2-1.2-0.6c-0.4-0.7-0.3-1.5,0.4-2l12.8-8.5c0.7-0.4,1.5-0.3,2,0.4
				c0.4,0.7,0.3,1.5-0.4,2L9.3,47.9C9,48.1,8.8,48.2,8.5,48.2z"/>
		</g>
		<g>
			<path class="st0" d="M59.5,48.2c-0.3,0-0.5-0.1-0.8-0.2L46,39.4c-0.7-0.4-0.8-1.3-0.4-2c0.4-0.7,1.3-0.8,2-0.4l12.8,8.5
				c0.7,0.4,0.8,1.3,0.4,2C60.4,47.9,60,48.2,59.5,48.2z"/>
		</g>
	</g>
</g>
</svg>
