<?xml version="1.0" encoding="utf-8"?>
<!-- Generator: Adobe Illustrator 19.2.0, SVG Export Plug-In . SVG Version: 6.00 Build 0)  -->
<svg version="1.1"
	 id="svg2" xmlns:cc="http://creativecommons.org/ns#" xmlns:dc="http://purl.org/dc/elements/1.1/" xmlns:inkscape="http://www.inkscape.org/namespaces/inkscape" xmlns:rdf="http://www.w3.org/1999/02/22-rdf-syntax-ns#" xmlns:sodipodi="http://sodipodi.sourceforge.net/DTD/sodipodi-0.dtd" xmlns:svg="http://www.w3.org/2000/svg"
	 xmlns="http://www.w3.org/2000/svg" xmlns:xlink="http://www.w3.org/1999/xlink" x="0px" y="0px" viewBox="0 0 105 105"
	 style="enable-background:new 0 0 105 105;" xml:space="preserve">
<style type="text/css">
	.st0{fill:#FFFFFF;}
</style>
<script  id="script3301" xlink:href=""></script>
<script  id="script3299" xlink:href=""></script>
<g id="g3536" transform="matrix(0.64050449,0,0,0.64031522,0,25.600003)">
	<path id="path3538" class="st0" d="M43.5,96.9c-4.6-1.9-10-5.9-11.9-10.5c-2.1-5,0-9.9,2.4-13.7c2.5-3.9,5.9-7.6,9.6-10.2
		c3.6-2.5,7.9-4.2,11.7-3.6c3.9,0.7,6.6,3.8,8,5.3c0.8,0.9,1.3,1.5,1.6,1.9l0.7,0.7l0.8-0.4c1-0.5,2.6-1.7,6.2-4.1
		c4.5-3.2,11.6-8.1,17.4-14.5c5.8-6.3,10.4-14,12.2-18.4c0.9-2,0.9-2.9,0.8-3.4c-0.2-0.2-0.4-0.3-0.7-0.5c-1.7-0.9-5.5-2.3-7.8-4.2
		c-2.7-2.3-3.2-5.4-3.1-7.9c0.1-2.5,0.8-4.8,2-7.5c1.2-2.7,2.8-5.8,5-8.7c2.1-3,4.7-5.8,6.6-7.6c2-1.9,3.4-2.6,5.2-3.3
		c1.9-0.7,4.5-1.3,8.5,0.4c3.5,1.5,8.4,5,11.1,8.8c2.9,4,3.3,8.2,3.3,11.8c-0.1,3.8-0.8,7.2-4.8,15.7c-4,8.5-11.4,22.3-22,34.9
		C95.9,70.4,82.3,81.4,73.8,88c-8.4,6.5-12.3,8.9-16.6,10C52.9,99.1,48.4,99,43.5,96.9z M55.9,93c3.2-0.8,6.3-2.6,14.8-9.1
		c8.4-6.5,21.6-17.2,31.8-29.3c10.2-12,17.4-25.5,21.3-33.7c3.8-8.2,4.2-10.9,4.3-13.7c0-3.1-0.3-6-2.3-8.7c-2.1-2.9-6.2-5.9-9-7.1
		c-2.4-1.1-3.6-0.7-4.7-0.3c-1.2,0.4-2,0.8-3.5,2.2c-1.6,1.6-4,4.1-5.9,6.9c-1.9,2.7-3.4,5.4-4.5,7.8c-1,2.3-1.5,4.1-1.6,5.7
		c-0.1,1.7,0.3,2.8,1.3,3.7c1.5,1.3,4.7,2.3,7,3.6c0.9,0.5,1.9,1.2,2.7,2.5l0.2,0.5c0.9,2.2,0.2,4.6-0.9,7.3
		c-2.1,4.9-7,13.1-13.2,19.9C87.5,58.2,80,63.4,75.5,66.6c-4.4,3-6.5,4.5-8.1,5.1C67,71.8,66.5,72,66.1,72c-1.3,0.2-2.3-0.2-3.3-0.8
		l-0.4-0.4c-0.8-0.7-1.6-1.8-2.9-3.2C58,66,56.3,64.4,54.4,64c-1.9-0.3-4.7,0.5-7.9,2.7c-3.1,2.1-6,5.3-8.2,8.7
		c-2.2,3.5-3.1,6.4-2,8.9c1.2,2.9,5.2,6.1,9.2,7.8C49.3,93.8,52.7,93.9,55.9,93z"/>
	<path id="path3540" class="st0" d="M0,109V-25c0-8.3,6.7-15,15-15h134c8.3,0,15,6.7,15,15v134c0,8.3-6.7,15-15,15H15
		C6.7,124,0,117.3,0,109z M158.8,109V-25c0-5.4-4.4-9.9-9.8-9.9H15c-5.4,0-9.8,4.4-9.8,9.9v134c0,5.4,4.4,9.9,9.8,9.9h134
		C154.4,118.9,158.8,114.5,158.8,109z"/>
</g>
</svg>
