<?xml version="1.0" encoding="utf-8"?>
<!-- Generator: Adobe Illustrator 19.2.0, SVG Export Plug-In . SVG Version: 6.00 Build 0)  -->
<svg version="1.1" id="Layer_1" xmlns="http://www.w3.org/2000/svg" xmlns:xlink="http://www.w3.org/1999/xlink" x="0px" y="0px"
	 viewBox="0 0 64 64" style="enable-background:new 0 0 64 64;" xml:space="preserve">
<style type="text/css">
	.st0{fill:#2A009E;}
</style>
<path class="st0" d="M47.7,29.2H16.3C8.4,29.2,2,22.9,2,15.1S8.4,1,16.3,1h31.4C55.6,1,62,7.3,62,15.1S55.6,29.2,47.7,29.2z
	 M47.7,3.8H16.3c-6.3,0-11.4,5-11.4,11.3S10,26.4,16.3,26.4h31.4c6.3,0,11.4-5,11.4-11.3S54,3.8,47.7,3.8z M16.3,23.5
	c-4.7,0-8.6-3.8-8.6-8.5c0-4.7,3.8-8.5,8.6-8.5s8.6,3.8,8.6,8.5C24.9,19.8,21,23.5,16.3,23.5z M16.3,9.5c-3.2,0-5.7,2.5-5.7,5.6
	s2.6,5.6,5.7,5.6s5.7-2.5,5.7-5.6S19.4,9.5,16.3,9.5z M16.3,34.8h31.4c7.9,0,14.3,6.3,14.3,14.1S55.6,63,47.7,63H16.3
	C8.4,63,2,56.7,2,48.9S8.4,34.8,16.3,34.8z M16.3,60.2h31.4c6.3,0,11.4-5,11.4-11.3S54,37.6,47.7,37.6H16.3c-6.3,0-11.4,5-11.4,11.3
	S10,60.2,16.3,60.2z M47.7,40.5c4.7,0,8.6,3.8,8.6,8.5s-3.8,8.5-8.6,8.5s-8.6-3.8-8.6-8.5S43,40.5,47.7,40.5z M47.7,54.5
	c3.2,0,5.7-2.5,5.7-5.6c0-3.1-2.6-5.6-5.7-5.6c-3.2,0-5.7,2.5-5.7,5.6C42,52,44.6,54.5,47.7,54.5z"/>
</svg>
